<svg width="10" height="8" viewBox="0 0 10 8" fill="none" xmlns="http://www.w3.org/2000/svg">
<path d="M4.73037 2.31546L4.74912 2.62671L4.4345 2.58846C3.28887 2.44221 2.288 1.94646 1.43825 1.11396L1.02237 0.701087L0.9155 1.00596C0.689 1.68621 0.83375 2.40434 1.3055 2.88734C1.5575 3.15434 1.50087 3.19221 1.06662 3.03359C0.9155 2.98259 0.783125 2.94434 0.770375 2.96346C0.7265 3.00809 0.877625 3.58634 0.99725 3.81509C1.16113 4.13309 1.4945 4.44434 1.85975 4.62884L2.16837 4.77509L1.80312 4.78109C1.45063 4.78109 1.43787 4.78746 1.47575 4.92096C1.60175 5.33421 2.099 5.77259 2.65325 5.96346L3.04325 6.09696L2.7035 6.30021C2.18922 6.59572 1.60899 6.75741 1.016 6.77046C0.732875 6.77684 0.5 6.80234 0.5 6.82146C0.5 6.88521 1.268 7.24071 1.715 7.38059C3.056 7.79384 4.64862 7.61571 5.84487 6.91034C6.69462 6.40821 7.54437 5.41034 7.94112 4.44434C8.15487 3.92946 8.369 2.98896 8.369 2.53784C8.369 2.24534 8.38775 2.20709 8.74025 1.85759C8.94837 1.65434 9.14337 1.43196 9.18125 1.36821C9.24425 1.24746 9.23787 1.24746 8.91687 1.35546C8.38175 1.54634 8.306 1.52084 8.57075 1.23471C8.76575 1.03146 8.99862 0.662837 8.99862 0.554837C8.99862 0.536087 8.90412 0.567587 8.79725 0.624587C8.684 0.688337 8.432 0.783587 8.24337 0.840962L7.90325 0.948962L7.59462 0.738962C7.42475 0.624587 7.18587 0.497462 7.05987 0.459587C6.7385 0.370337 6.24762 0.383087 5.95812 0.485087C5.171 0.770837 4.67375 1.50809 4.73037 2.31509V2.31546Z" fill="white"/>
</svg>
